<?xml version="1.0" standalone="no"?>
<!DOCTYPE svg PUBLIC "-//W3C//DTD SVG 20010904//EN"
 "http://www.w3.org/TR/2001/REC-SVG-20010904/DTD/svg10.dtd">
<svg version="1.0" xmlns="http://www.w3.org/2000/svg"
 width="300.000000pt" height="300.000000pt" viewBox="0 0 300.000000 300.000000"
 preserveAspectRatio="xMidYMid meet">
<metadata>
Created by potrace 1.10, written by Peter Selinger 2001-2011
</metadata>
<g transform="translate(0.000000,300.000000) scale(0.100000,-0.100000)"
fill="#4f46e5" stroke="none">
<path d="M1100 2846 c-306 -92 -578 -291 -756 -552 -60 -87 -124 -203 -124
-224 0 -7 94 -9 291 -8 l291 3 33 132 c63 245 152 434 278 589 37 46 66 84 65
83 -2 0 -37 -10 -78 -23z"/>
<path d="M1888 2785 c125 -154 214 -344 277 -588 l33 -132 291 -3 c197 -1 291
1 291 8 0 6 -14 39 -31 73 -122 242 -369 486 -616 611 -84 42 -183 80 -258
100 l-54 14 67 -83z"/>
<path d="M1425 2798 c-106 -40 -221 -171 -301 -343 -41 -88 -110 -294 -120
-355 l-7 -40 503 0 502 0 -7 43 c-11 63 -78 264 -118 350 -71 154 -182 288
-274 332 -45 22 -136 29 -178 13z"/>
<path d="M141 1857 c-23 -60 -44 -231 -44 -357 0 -126 21 -297 44 -357 l9 -23
307 2 308 3 -5 100 c-3 55 -5 179 -5 275 0 96 2 220 5 275 l5 100 -308 3 -307
2 -9 -23z"/>
<path d="M966 1872 c-3 -5 -11 -63 -17 -128 -12 -122 -6 -501 9 -579 l7 -40
535 0 534 0 10 45 c12 59 12 601 0 660 l-10 45 -531 3 c-293 1 -534 -2 -537
-6z"/>
<path d="M2235 1870 c-3 -5 0 -71 6 -147 8 -90 9 -203 4 -323 -4 -102 -8 -205
-9 -230 l-1 -45 308 -3 307 -2 9 23 c23 59 44 231 44 357 0 126 -21 298 -44
357 l-9 23 -304 0 c-182 0 -307 -4 -311 -10z"/>
<path d="M220 930 c0 -21 64 -137 124 -224 179 -262 470 -473 766 -555 l69
-20 -67 83 c-125 155 -214 345 -277 589 l-33 132 -291 3 c-197 1 -291 -1 -291
-8z"/>
<path d="M1004 900 c9 -60 79 -267 119 -353 71 -154 180 -287 274 -333 52 -26
154 -26 206 0 94 46 203 179 274 333 40 86 107 287 118 351 l7 42 -502 0 -503
0 7 -40z"/>
<path d="M2200 938 c-1 -2 -16 -62 -35 -135 -64 -246 -152 -434 -277 -588
l-67 -83 56 15 c69 18 183 63 266 104 237 120 486 369 606 606 17 34 31 67 31
73 0 7 -98 10 -290 10 -159 0 -290 -1 -290 -2z"/>
</g>
</svg>
